<svg viewBox="0 0 9072 744" xmlns="http://www.w3.org/2000/svg" font-family="Onest, -apple-system, sans-serif"><rect width="9072" height="744" fill="#F4EFE5"/><text x="40" y="46" font-family="IBM Plex Mono, monospace" font-size="12" letter-spacing="2" fill="#6E7795">PARCOURS · RUBAN DE CHAÎNE DE VALEUR</text><text x="40" y="78" font-family="Lora, Georgia, serif" font-size="24" fill="#1A2333">Charge administrative d'une consultation</text><line x1="40" y1="96" x2="9032" y2="96" stroke="rgba(26,35,51,0.12)" stroke-width="1"/><rect x="40" y="130" width="8992" height="72" fill="#F4EFE5" stroke="rgba(26,35,51,0.12)" stroke-width="1"/><text x="44" y="170" font-family="IBM Plex Mono, monospace" font-size="10" letter-spacing="1" fill="#6E7795">ENVIRONNEMENT</text><rect x="40" y="202" width="8992" height="72" fill="#FBFAF6" stroke="rgba(26,35,51,0.12)" stroke-width="1"/><text x="44" y="242" font-family="IBM Plex Mono, monospace" font-size="10" letter-spacing="1" fill="#6E7795">STRATÉGIE</text><rect x="40" y="274" width="8992" height="72" fill="#F4EFE5" stroke="rgba(26,35,51,0.12)" stroke-width="1"/><text x="44" y="314" font-family="IBM Plex Mono, monospace" font-size="10" letter-spacing="1" fill="#6E7795">PARTICIPANT</text><rect x="40" y="346" width="8992" height="72" fill="#FBFAF6" stroke="rgba(26,35,51,0.12)" stroke-width="1"/><text x="44" y="386" font-family="IBM Plex Mono, monospace" font-size="10" letter-spacing="1" fill="#6E7795">TECHNOLOGIE</text><rect x="40" y="418" width="8992" height="72" fill="#F4EFE5" stroke="rgba(26,35,51,0.12)" stroke-width="1"/><text x="44" y="458" font-family="IBM Plex Mono, monospace" font-size="10" letter-spacing="1" fill="#6E7795">INFORMATION</text><rect x="40" y="490" width="8992" height="72" fill="#FBFAF6" stroke="rgba(26,35,51,0.12)" stroke-width="1"/><text x="44" y="530" font-family="IBM Plex Mono, monospace" font-size="10" letter-spacing="1" fill="#6E7795">PROCESSUS</text><rect x="40" y="562" width="8992" height="72" fill="#F4EFE5" stroke="rgba(26,35,51,0.12)" stroke-width="1"/><text x="44" y="602" font-family="IBM Plex Mono, monospace" font-size="10" letter-spacing="1" fill="#6E7795">PRODUIT</text><g fill="none" stroke="#1A2333" stroke-width="1.5" opacity="1"><circle cx="200" cy="299" r="6"/><path d="M189,317 q11,-16 22,0"/></g><text x="200" y="333" text-anchor="middle" font-size="10" fill="#3A4360" opacity="1">Médecin</text><g fill="none" stroke="#1A2333" stroke-width="1.5" opacity="0.42"><circle cx="234" cy="299" r="6"/><path d="M223,317 q11,-16 22,0"/></g><text x="234" y="333" text-anchor="middle" font-size="10" fill="#3A4360" opacity="0.42">Secrétariat</text><rect x="184" y="366" width="32" height="24" fill="none" stroke="#1A2333" stroke-width="1.5" opacity="1"/><text x="200" y="405" text-anchor="middle" font-size="10" fill="#3A4360" opacity="1">Logiciel métier</text><rect x="218" y="366" width="32" height="24" fill="none" stroke="#1A2333" stroke-width="1.5" opacity="1"/><text x="234" y="405" text-anchor="middle" font-size="10" fill="#3A4360" opacity="1">Lecteur Vitale</text><polygon points="190,223 210,223 216,245 184,245" fill="none" stroke="#1A2333" stroke-width="1.5" opacity="1"/><text x="200" y="261" text-anchor="middle" font-size="10" fill="#3A4360" opacity="1">Règles de cotation</text><rect x="320" y="511" width="36" height="22" rx="11" fill="none" stroke="#1A2333" stroke-width="1.5" opacity="1"/><text x="338" y="549" text-anchor="middle" font-size="10" fill="#3A4360" opacity="1">Cotation de l'acte</text><circle cx="338" cy="522" r="22" fill="none" stroke="#7A3320" stroke-width="1.4" stroke-dasharray="4 3"/><text x="338" y="494" text-anchor="middle" font-family="IBM Plex Mono, monospace" font-size="9" fill="#7A3320">désalignement</text><rect x="460" y="438" width="32" height="24" fill="none" stroke="#1A2333" stroke-width="1.5" opacity="1"/><text x="476" y="477" text-anchor="middle" font-size="10" fill="#3A4360" opacity="1">Feuille de soins</text><rect x="8876" y="511" width="36" height="22" rx="11" fill="none" stroke="#1A2333" stroke-width="1.5" opacity="1"/><text x="8894" y="549" text-anchor="middle" font-size="10" fill="#3A4360" opacity="1">Télétransmission</text><circle cx="8480" cy="162" r="14" fill="none" stroke="#1A2333" stroke-width="1.5" opacity="1"/><text x="8480" y="189" text-anchor="middle" font-size="10" fill="#3A4360" opacity="1">Assurance maladie</text><polygon points="8618,509 8635,522 8618,535 8601,522" fill="none" stroke="#1A2333" stroke-width="1.5" opacity="1"/><text x="8618" y="549" text-anchor="middle" font-size="10" fill="#3A4360" opacity="1">Retour payeur ?</text><rect x="8738" y="511" width="36" height="22" rx="11" fill="none" stroke="#1A2333" stroke-width="1.5" opacity="1"/><text x="8756" y="549" text-anchor="middle" font-size="10" fill="#3A4360" opacity="1">Reprise du rejet</text><rect x="8772" y="511" width="36" height="22" rx="11" fill="none" stroke="#1A2333" stroke-width="1.5" opacity="1"/><text x="8790" y="549" text-anchor="middle" font-size="10" fill="#3A4360" opacity="1">Encaissement</text><polygon points="326,583 356,583 350,605 320,605" fill="none" stroke="#1A2333" stroke-width="1.5" opacity="1"/><text x="338" y="621" text-anchor="middle" font-size="10" fill="#3A4360" opacity="1">Documents associés</text><rect x="354" y="511" width="36" height="22" rx="11" fill="none" stroke="#1A2333" stroke-width="1.5" opacity="1"/><text x="372" y="549" text-anchor="middle" font-size="10" fill="#3A4360" opacity="1">Mise à jour du dossier</text><g fill="none" stroke="#1A2333" stroke-width="1.5" opacity="1"><ellipse cx="510" cy="441" rx="15" ry="5"/><path d="M495,441 v18 a15,5 0 0 0 30,0 v-18"/></g><text x="510" y="477" text-anchor="middle" font-size="10" fill="#3A4360" opacity="1">Dossier patient</text><text x="40" y="686" font-family="IBM Plex Mono, monospace" font-size="10" letter-spacing="1.5" fill="#6E7795">8 SYMBOLES — LA FORME DIT LE TYPE · plein = confirmé, atténué = inféré</text><g fill="none" stroke="#1A2333" stroke-width="1.5" opacity="1"><circle cx="70" cy="703" r="6"/><path d="M59,721 q11,-16 22,0"/></g><text x="96" y="714" font-size="11" fill="#3A4360">Acteur</text><rect x="194" y="698" width="32" height="24" fill="none" stroke="#1A2333" stroke-width="1.5" opacity="1"/><text x="236" y="714" font-size="11" fill="#3A4360">Entité</text><g fill="none" stroke="#1A2333" stroke-width="1.5" opacity="1"><ellipse cx="350" cy="701" rx="15" ry="5"/><path d="M335,701 v18 a15,5 0 0 0 30,0 v-18"/></g><text x="376" y="714" font-size="11" fill="#3A4360">Stock</text><rect x="472" y="699" width="36" height="22" rx="11" fill="none" stroke="#1A2333" stroke-width="1.5" opacity="1"/><text x="516" y="714" font-size="11" fill="#3A4360">Action</text><polygon points="630,697 647,710 630,723 613,710" fill="none" stroke="#1A2333" stroke-width="1.5" opacity="1"/><text x="656" y="714" font-size="11" fill="#3A4360">Décision</text><polygon points="758,699 788,699 782,721 752,721" fill="none" stroke="#1A2333" stroke-width="1.5" opacity="1"/><text x="796" y="714" font-size="11" fill="#3A4360">Flux</text><polygon points="900,699 920,699 926,721 894,721" fill="none" stroke="#1A2333" stroke-width="1.5" opacity="1"/><text x="936" y="714" font-size="11" fill="#3A4360">Contrainte</text><circle cx="1050" cy="710" r="14" fill="none" stroke="#1A2333" stroke-width="1.5" opacity="1"/><text x="1076" y="714" font-size="11" fill="#3A4360">Frontière</text></svg>