<svg viewBox="0 0 1180 600" xmlns="http://www.w3.org/2000/svg" font-family="Onest, sans-serif"><rect width="1180" height="600" fill="#F4EFE5"/><text x="40" y="46" font-family="IBM Plex Mono, monospace" font-size="12" letter-spacing="2" fill="#6E7795">PARCOURS · RUBAN DE CHAÎNE DE VALEUR</text><text x="40" y="78" font-family="Lora, Georgia, serif" font-size="26" fill="#1A2333">Charge administrative d'une consultation</text><line x1="40" y1="96" x2="1140" y2="96" stroke="rgba(26,35,51,0.12)" stroke-width="1"/><rect x="40" y="130" width="1100" height="72" fill="#F4EFE5" stroke="rgba(26,35,51,0.12)" stroke-width="1"/><text x="44" y="170.0" font-family="IBM Plex Mono, monospace" font-size="10" letter-spacing="1" fill="#6E7795">ENVIRONNEMENT</text><rect x="40" y="202" width="1100" height="72" fill="#FBFAF6" stroke="rgba(26,35,51,0.12)" stroke-width="1"/><text x="44" y="242.0" font-family="IBM Plex Mono, monospace" font-size="10" letter-spacing="1" fill="#6E7795">PARTICIPANT</text><rect x="40" y="274" width="1100" height="72" fill="#F4EFE5" stroke="rgba(26,35,51,0.12)" stroke-width="1"/><text x="44" y="314.0" font-family="IBM Plex Mono, monospace" font-size="10" letter-spacing="1" fill="#6E7795">TECHNOLOGIE</text><rect x="40" y="346" width="1100" height="72" fill="#FBFAF6" stroke="rgba(26,35,51,0.12)" stroke-width="1"/><text x="44" y="386.0" font-family="IBM Plex Mono, monospace" font-size="10" letter-spacing="1" fill="#6E7795">INFORMATION</text><rect x="40" y="418" width="1100" height="72" fill="#F4EFE5" stroke="rgba(26,35,51,0.12)" stroke-width="1"/><text x="44" y="458.0" font-family="IBM Plex Mono, monospace" font-size="10" letter-spacing="1" fill="#6E7795">PROCESSUS</text><rect x="40" y="490" width="1100" height="72" fill="#FBFAF6" stroke="rgba(26,35,51,0.12)" stroke-width="1"/><text x="44" y="530.0" font-family="IBM Plex Mono, monospace" font-size="10" letter-spacing="1" fill="#6E7795">PRODUIT</text><g opacity="1.0"><circle cx="190" cy="227.0" r="6" fill="none" stroke="#1A2333" stroke-width="1.5"/><path d="M179,245.0 q11,-16 22,0" fill="none" stroke="#1A2333" stroke-width="1.5"/></g><text x="190" y="261.0" text-anchor="middle" font-family="Onest, -apple-system, sans-serif" font-size="10" fill="#3A4360" opacity="1.0">Médecin</text><g opacity="0.4"><circle cx="220" cy="227.0" r="6" fill="none" stroke="#1A2333" stroke-width="1.5"/><path d="M209,245.0 q11,-16 22,0" fill="none" stroke="#1A2333" stroke-width="1.5"/></g><text x="220" y="261.0" text-anchor="middle" font-family="Onest, -apple-system, sans-serif" font-size="10" fill="#3A4360" opacity="0.4">Secrétariat</text><rect x="174" y="294.0" width="32" height="24" fill="none" stroke="#1A2333" stroke-width="1.5" opacity="1.0"/><text x="190" y="333.0" text-anchor="middle" font-family="Onest, -apple-system, sans-serif" font-size="10" fill="#3A4360" opacity="1.0">Logiciel</text><rect x="588" y="294.0" width="32" height="24" fill="none" stroke="#1A2333" stroke-width="1.5" opacity="1.0"/><text x="604" y="333.0" text-anchor="middle" font-family="Onest, -apple-system, sans-serif" font-size="10" fill="#3A4360" opacity="1.0">Lecteur Vitale</text><rect x="310" y="439.0" width="36" height="22" rx="11" fill="none" stroke="#1A2333" stroke-width="1.5" opacity="1.0"/><text x="328" y="477.0" text-anchor="middle" font-family="Onest, -apple-system, sans-serif" font-size="10" fill="#3A4360" opacity="1.0">Cotation</text><rect x="450" y="366.0" width="32" height="24" fill="none" stroke="#1A2333" stroke-width="1.5" opacity="1.0"/><text x="466" y="405.0" text-anchor="middle" font-family="Onest, -apple-system, sans-serif" font-size="10" fill="#3A4360" opacity="1.0">Feuille de soins</text><rect x="586" y="439.0" width="36" height="22" rx="11" fill="none" stroke="#1A2333" stroke-width="1.5" opacity="1.0"/><text x="604" y="477.0" text-anchor="middle" font-family="Onest, -apple-system, sans-serif" font-size="10" fill="#3A4360" opacity="1.0">Télétrans.</text><circle cx="742" cy="162.0" r="14" fill="none" stroke="#1A2333" stroke-width="1.5" opacity="1.0"/><text x="742" y="189.0" text-anchor="middle" font-family="Onest, -apple-system, sans-serif" font-size="10" fill="#3A4360" opacity="1.0">Payeur</text><polygon points="742,437.0 759,450.0 742,463.0 725,450.0" fill="none" stroke="#1A2333" stroke-width="1.5" opacity="1.0"/><text x="742" y="477.0" text-anchor="middle" font-family="Onest, -apple-system, sans-serif" font-size="10" fill="#3A4360" opacity="1.0">Retour ?</text><rect x="862" y="439.0" width="36" height="22" rx="11" fill="none" stroke="#1A2333" stroke-width="1.5" opacity="1.0"/><text x="880" y="477.0" text-anchor="middle" font-family="Onest, -apple-system, sans-serif" font-size="10" fill="#3A4360" opacity="1.0">Encaissement</text><polygon points="316,511.0 346,511.0 340,533.0 310,533.0" fill="none" stroke="#1A2333" stroke-width="1.5" opacity="1.0"/><text x="328" y="549.0" text-anchor="middle" font-family="Onest, -apple-system, sans-serif" font-size="10" fill="#3A4360" opacity="1.0">Documents</text><rect x="448" y="439.0" width="36" height="22" rx="11" fill="none" stroke="#1A2333" stroke-width="1.5" opacity="1.0"/><text x="466" y="477.0" text-anchor="middle" font-family="Onest, -apple-system, sans-serif" font-size="10" fill="#3A4360" opacity="1.0">MAJ dossier</text><g opacity="1.0" fill="none" stroke="#1A2333" stroke-width="1.5"><ellipse cx="1018" cy="369.0" rx="15" ry="5"/><path d="M1003,369.0 v18 a15,5 0 0 0 30,0 v-18"/></g><text x="1018" y="405.0" text-anchor="middle" font-family="Onest, -apple-system, sans-serif" font-size="10" fill="#3A4360" opacity="1.0">Dossier</text><text x="328" y="116" text-anchor="middle" font-family="IBM Plex Mono, monospace" font-size="9" fill="#7A3320">désalignement</text><line x1="328" y1="120" x2="328" y2="438.0" stroke="#7A3320" stroke-width="1.6" stroke-dasharray="4 3"/><polygon points="318,97 338,97 344,119 312,119" fill="none" stroke="#7A3320" stroke-width="1.5" opacity="1.0"/><text x="40" y="542" font-family="IBM Plex Mono, monospace" font-size="10" letter-spacing="1.5" fill="#6E7795">8 SYMBOLES — LA FORME DIT LE TYPE · plein = confirmé, atténué = inféré</text><g opacity="1.0"><circle cx="70" cy="559" r="6" fill="none" stroke="#1A2333" stroke-width="1.5"/><path d="M59,577 q11,-16 22,0" fill="none" stroke="#1A2333" stroke-width="1.5"/></g><text x="96" y="570" font-family="Onest, -apple-system, sans-serif" font-size="11" fill="#3A4360">Acteur</text><rect x="194" y="554" width="32" height="24" fill="none" stroke="#1A2333" stroke-width="1.5" opacity="1.0"/><text x="236" y="570" font-family="Onest, -apple-system, sans-serif" font-size="11" fill="#3A4360">Entité</text><g opacity="1.0" fill="none" stroke="#1A2333" stroke-width="1.5"><ellipse cx="350" cy="557" rx="15" ry="5"/><path d="M335,557 v18 a15,5 0 0 0 30,0 v-18"/></g><text x="376" y="570" font-family="Onest, -apple-system, sans-serif" font-size="11" fill="#3A4360">Stock</text><rect x="472" y="555" width="36" height="22" rx="11" fill="none" stroke="#1A2333" stroke-width="1.5" opacity="1.0"/><text x="516" y="570" font-family="Onest, -apple-system, sans-serif" font-size="11" fill="#3A4360">Action</text><polygon points="630,553 647,566 630,579 613,566" fill="none" stroke="#1A2333" stroke-width="1.5" opacity="1.0"/><text x="656" y="570" font-family="Onest, -apple-system, sans-serif" font-size="11" fill="#3A4360">Décision</text><polygon points="758,555 788,555 782,577 752,577" fill="none" stroke="#1A2333" stroke-width="1.5" opacity="1.0"/><text x="796" y="570" font-family="Onest, -apple-system, sans-serif" font-size="11" fill="#3A4360">Flux</text><polygon points="900,555 920,555 926,577 894,577" fill="none" stroke="#1A2333" stroke-width="1.5" opacity="1.0"/><text x="936" y="570" font-family="Onest, -apple-system, sans-serif" font-size="11" fill="#3A4360">Contrainte</text><circle cx="1050" cy="566" r="14" fill="none" stroke="#1A2333" stroke-width="1.5" opacity="1.0"/><text x="1076" y="570" font-family="Onest, -apple-system, sans-serif" font-size="11" fill="#3A4360">Frontière</text></svg>