<svg viewBox="0 0 1180 620" xmlns="http://www.w3.org/2000/svg" font-family="Onest, sans-serif"><rect width="1180" height="620" fill="#F4EFE5"/><text x="40" y="46" font-family="IBM Plex Mono, monospace" font-size="12" letter-spacing="2" fill="#6E7795">PARCOURS · MINI-CARTO DES OBJETS</text><text x="40" y="78" font-family="Lora, Georgia, serif" font-size="26" fill="#1A2333">Charge administrative d'une consultation</text><line x1="40" y1="96" x2="1140" y2="96" stroke="rgba(26,35,51,0.12)" stroke-width="1"/><line x1="250" y1="170" x2="470" y2="150" stroke="#B5B5B8" stroke-width="1.1" opacity="0.5"/><line x1="250" y1="170" x2="560" y2="205" stroke="#B5B5B8" stroke-width="1.1" opacity="0.5"/><line x1="250" y1="170" x2="430" y2="360" stroke="#B5B5B8" stroke-width="1.1" opacity="0.5"/><line x1="250" y1="170" x2="380" y2="500" stroke="#B5B5B8" stroke-width="1.1" opacity="0.5"/><line x1="250" y1="170" x2="560" y2="530" stroke="#B5B5B8" stroke-width="1.1" opacity="0.5"/><line x1="230" y1="400" x2="430" y2="360" stroke="#B5B5B8" stroke-width="1.1" opacity="0.5"/><line x1="430" y1="360" x2="620" y2="310" stroke="#B5B5B8" stroke-width="1.1" opacity="0.5"/><line x1="620" y1="310" x2="640" y2="420" stroke="#B5B5B8" stroke-width="1.1" opacity="0.5"/><line x1="560" y1="205" x2="640" y2="420" stroke="#B5B5B8" stroke-width="1.1" opacity="0.5"/><line x1="640" y1="420" x2="880" y2="300" stroke="#B5B5B8" stroke-width="1.1" opacity="0.5"/><line x1="880" y1="300" x2="840" y2="430" stroke="#B5B5B8" stroke-width="1.1" opacity="0.5"/><line x1="840" y1="430" x2="770" y2="520" stroke="#B5B5B8" stroke-width="1.1" opacity="0.5"/><line x1="840" y1="430" x2="1000" y2="440" stroke="#B5B5B8" stroke-width="1.1" opacity="0.5"/><line x1="560" y1="530" x2="760" y2="300" stroke="#B5B5B8" stroke-width="1.1" opacity="0.5"/><line x1="380" y1="500" x2="760" y2="300" stroke="#B5B5B8" stroke-width="1.1" opacity="0.5"/><line x1="190" y1="235" x2="250" y2="170" stroke="#B5B5B8" stroke-width="1.1" opacity="0.225"/><circle cx="250" cy="170" r="10" fill="#8E8E91" stroke="#F4EFE5" stroke-width="2" opacity="1.0"/><text x="265" y="174" font-family="Onest, -apple-system, sans-serif" font-size="11.5" fill="#3A4360" opacity="1.0">Médecin</text><circle cx="190" cy="235" r="10" fill="#B5B5B8" stroke="#F4EFE5" stroke-width="2" opacity="0.45"/><text x="205" y="239" font-family="Onest, -apple-system, sans-serif" font-size="11.5" fill="#3A4360" opacity="0.45">Secrétariat</text><circle cx="470" cy="150" r="10" fill="#8E8E91" stroke="#F4EFE5" stroke-width="2" opacity="1.0"/><text x="485" y="154" font-family="Onest, -apple-system, sans-serif" font-size="11.5" fill="#3A4360" opacity="1.0">Logiciel métier</text><circle cx="560" cy="205" r="10" fill="#8E8E91" stroke="#F4EFE5" stroke-width="2" opacity="1.0"/><text x="575" y="209" font-family="Onest, -apple-system, sans-serif" font-size="11.5" fill="#3A4360" opacity="1.0">Lecteur Vitale</text><circle cx="230" cy="400" r="10" fill="#B5B5B8" stroke="#F4EFE5" stroke-width="2" opacity="1.0"/><text x="245" y="404" font-family="Onest, -apple-system, sans-serif" font-size="11.5" fill="#3A4360" opacity="1.0">Règles de cotation</text><circle cx="430" cy="360" r="10" fill="#7A6030" stroke="#F4EFE5" stroke-width="2" opacity="1.0"/><text x="445" y="364" font-family="Onest, -apple-system, sans-serif" font-size="11.5" fill="#3A4360" opacity="1.0">Cotation</text><circle cx="620" cy="310" r="10" fill="#8E8E91" stroke="#F4EFE5" stroke-width="2" opacity="1.0"/><text x="635" y="314" font-family="Onest, -apple-system, sans-serif" font-size="11.5" fill="#3A4360" opacity="1.0">Feuille de soins</text><circle cx="640" cy="420" r="10" fill="#8E8E91" stroke="#F4EFE5" stroke-width="2" opacity="1.0"/><text x="655" y="424" font-family="Onest, -apple-system, sans-serif" font-size="11.5" fill="#3A4360" opacity="1.0">Télétransmission</text><circle cx="880" cy="300" r="10" fill="#8E8E91" stroke="#F4EFE5" stroke-width="2" opacity="1.0"/><text x="895" y="304" font-family="Onest, -apple-system, sans-serif" font-size="11.5" fill="#3A4360" opacity="1.0">Payeur (externe)</text><circle cx="840" cy="430" r="10" fill="#7A6030" stroke="#F4EFE5" stroke-width="2" opacity="1.0"/><text x="855" y="434" font-family="Onest, -apple-system, sans-serif" font-size="11.5" fill="#3A4360" opacity="1.0">Retour payeur</text><circle cx="770" cy="520" r="10" fill="#6B6630" stroke="#F4EFE5" stroke-width="2" opacity="1.0"/><text x="785" y="524" font-family="Onest, -apple-system, sans-serif" font-size="11.5" fill="#3A4360" opacity="1.0">Reprise du rejet</text><circle cx="1000" cy="440" r="10" fill="#8E8E91" stroke="#F4EFE5" stroke-width="2" opacity="1.0"/><text x="1015" y="444" font-family="Onest, -apple-system, sans-serif" font-size="11.5" fill="#3A4360" opacity="1.0">Encaissement</text><circle cx="380" cy="500" r="10" fill="#6B6630" stroke="#F4EFE5" stroke-width="2" opacity="1.0"/><text x="395" y="504" font-family="Onest, -apple-system, sans-serif" font-size="11.5" fill="#3A4360" opacity="1.0">Documents</text><circle cx="560" cy="530" r="10" fill="#B5B5B8" stroke="#F4EFE5" stroke-width="2" opacity="1.0"/><text x="575" y="534" font-family="Onest, -apple-system, sans-serif" font-size="11.5" fill="#3A4360" opacity="1.0">MAJ dossier</text><circle cx="760" cy="300" r="10" fill="#8E8E91" stroke="#F4EFE5" stroke-width="2" opacity="1.0"/><text x="775" y="304" font-family="Onest, -apple-system, sans-serif" font-size="11.5" fill="#3A4360" opacity="1.0">Dossier patient</text><text x="40" y="564" font-family="IBM Plex Mono, monospace" font-size="10" letter-spacing="1.5" fill="#6E7795">ÉTAT DE SANTÉ DES OBJETS · point atténué = inféré</text><circle cx="70" cy="586" r="8" fill="#1A2333"/><text x="86" y="590" font-family="Onest, -apple-system, sans-serif" font-size="11" fill="#3A4360">optimal</text><circle cx="250" cy="586" r="8" fill="#8E8E91"/><text x="266" y="590" font-family="Onest, -apple-system, sans-serif" font-size="11" fill="#3A4360">fonct</text><circle cx="430" cy="586" r="8" fill="#6B6630"/><text x="446" y="590" font-family="Onest, -apple-system, sans-serif" font-size="11" fill="#3A4360">vigilance</text><circle cx="610" cy="586" r="8" fill="#7A6030"/><text x="626" y="590" font-family="Onest, -apple-system, sans-serif" font-size="11" fill="#3A4360">risque</text><circle cx="790" cy="586" r="8" fill="#7A3320"/><text x="806" y="590" font-family="Onest, -apple-system, sans-serif" font-size="11" fill="#3A4360">critique</text><circle cx="970" cy="586" r="8" fill="#B5B5B8"/><text x="986" y="590" font-family="Onest, -apple-system, sans-serif" font-size="11" fill="#3A4360">nondoc</text></svg>