<svg viewBox="0 0 1180 600" xmlns="http://www.w3.org/2000/svg" font-family="Onest, sans-serif"><rect width="1180" height="600" fill="#F4EFE5"/><text x="40" y="46" font-family="IBM Plex Mono, monospace" font-size="12" letter-spacing="2" fill="#6E7795">PARCOURS · LOGIGRAMME DE PROCESS</text><text x="40" y="78" font-family="Lora, Georgia, serif" font-size="26" fill="#1A2333">Charge administrative d'une consultation</text><line x1="40" y1="96" x2="1140" y2="96" stroke="rgba(26,35,51,0.12)" stroke-width="1"/><defs><marker id="ah" markerWidth="9" markerHeight="9" refX="7" refY="3" orient="auto"><path d="M0,0 L7,3 L0,6 Z" fill="#8E8E91"/></marker></defs><rect x="40" y="205" width="150" height="54" rx="10" fill="#EFEFEC" stroke="#8E8E91" stroke-width="1.6"/><text x="115.0" y="236.0" text-anchor="middle" font-family="Onest, -apple-system, sans-serif" font-size="13" fill="#3A4360">Clôture de l'acte</text><rect x="228" y="205" width="150" height="54" rx="10" fill="#E9E4DA" stroke="#7A6030" stroke-width="1.6"/><text x="303.0" y="236.0" text-anchor="middle" font-family="Onest, -apple-system, sans-serif" font-size="13" fill="#7A6030">Cotation de l'acte</text><rect x="416" y="205" width="150" height="54" rx="2" fill="#EFEFEC" stroke="#8E8E91" stroke-width="1.6"/><text x="491.0" y="236.0" text-anchor="middle" font-family="Onest, -apple-system, sans-serif" font-size="13" fill="#3A4360">Feuille de soins</text><rect x="604" y="205" width="150" height="54" rx="10" fill="#EFEFEC" stroke="#8E8E91" stroke-width="1.6"/><text x="679.0" y="236.0" text-anchor="middle" font-family="Onest, -apple-system, sans-serif" font-size="13" fill="#3A4360">Télétransmission</text><polygon points="860,192.0 916.0,232.0 860,272.0 804.0,232.0" fill="#E9E4DA" stroke="#7A6030" stroke-width="1.6"/><text x="860" y="236.0" text-anchor="middle" font-family="Onest, -apple-system, sans-serif" font-size="12" fill="#7A6030">Retour payeur ?</text><rect x="960" y="150" width="180" height="54" rx="10" fill="#EFEFEC" stroke="#8E8E91" stroke-width="1.6"/><text x="1050.0" y="181.0" text-anchor="middle" font-family="Onest, -apple-system, sans-serif" font-size="13" fill="#3A4360">Encaissement</text><rect x="770" y="330" width="160" height="54" rx="10" fill="#EAE8DE" stroke="#6B6630" stroke-width="1.6"/><text x="850.0" y="361.0" text-anchor="middle" font-family="Onest, -apple-system, sans-serif" font-size="13" fill="#6B6630">Reprise du rejet</text><polygon points="242,440 398,440 384,494 228,494" fill="#EAE8DE" stroke="#6B6630" stroke-width="1.6"/><text x="313.0" y="471.0" text-anchor="middle" font-family="Onest, -apple-system, sans-serif" font-size="13" fill="#6B6630">Documents associés</text><rect x="430" y="440" width="150" height="54" rx="10" fill="#F3F3EF" stroke="#B5B5B8" stroke-width="1.6"/><text x="505.0" y="471.0" text-anchor="middle" font-family="Onest, -apple-system, sans-serif" font-size="13" fill="#6E7795">MAJ du dossier</text><path d="M620,440 a75.0,8 0 0 1 150,0 v54 a75.0,8 0 0 1 -150,0 Z" fill="#EFEFEC" stroke="#8E8E91" stroke-width="1.6"/><path d="M620,440 a75.0,8 0 0 0 150,0" fill="none" stroke="#8E8E91" stroke-width="1.6"/><text x="695.0" y="473.0" text-anchor="middle" font-family="Onest, -apple-system, sans-serif" font-size="13" fill="#3A4360">Dossier patient</text><line x1="190" y1="232.0" x2="228" y2="232.0" stroke="#8E8E91" stroke-width="1.4" marker-end="url(#ah)" /><text x="209.0" y="226.0" text-anchor="middle" font-family="IBM Plex Mono, monospace" font-size="10" fill="#6E7795">produit</text><line x1="378" y1="232.0" x2="416" y2="232.0" stroke="#8E8E91" stroke-width="1.4" marker-end="url(#ah)" /><text x="397.0" y="226.0" text-anchor="middle" font-family="IBM Plex Mono, monospace" font-size="10" fill="#6E7795">produit</text><line x1="566" y1="232.0" x2="604" y2="232.0" stroke="#8E8E91" stroke-width="2.4" marker-end="url(#ah)" /><text x="585.0" y="226.0" text-anchor="middle" font-family="IBM Plex Mono, monospace" font-size="10" fill="#6E7795">alimente</text><line x1="754" y1="232.0" x2="804" y2="232.0" stroke="#8E8E91" stroke-width="1.4" marker-end="url(#ah)" /><text x="779.0" y="226.0" text-anchor="middle" font-family="IBM Plex Mono, monospace" font-size="10" fill="#6E7795">interface</text><line x1="890" y1="214.0" x2="960" y2="178" stroke="#8E8E91" stroke-width="1.4" marker-end="url(#ah)" /><text x="925.0" y="190.0" text-anchor="middle" font-family="IBM Plex Mono, monospace" font-size="10" fill="#6E7795">accepté</text><line x1="860" y1="272.0" x2="850" y2="330" stroke="#8E8E91" stroke-width="1.4" marker-end="url(#ah)" /><text x="855.0" y="295.0" text-anchor="middle" font-family="IBM Plex Mono, monospace" font-size="10" fill="#6E7795">rejeté</text><line x1="770" y1="356" x2="690" y2="259" stroke="#8E8E91" stroke-width="1.4" marker-end="url(#ah)" stroke-dasharray="5 4"/><text x="730.0" y="301.5" text-anchor="middle" font-family="IBM Plex Mono, monospace" font-size="10" fill="#6E7795">reprise</text><line x1="95" y1="259" x2="260" y2="440" stroke="#8E8E91" stroke-width="1.4" marker-end="url(#ah)" /><text x="177.5" y="343.5" text-anchor="middle" font-family="IBM Plex Mono, monospace" font-size="10" fill="#6E7795">produit</text><line x1="130" y1="259" x2="470" y2="440" stroke="#8E8E91" stroke-width="1.4" marker-end="url(#ah)" /><text x="300.0" y="343.5" text-anchor="middle" font-family="IBM Plex Mono, monospace" font-size="10" fill="#6E7795">produit</text><line x1="505" y1="494" x2="620" y2="478" stroke="#8E8E91" stroke-width="1.4" marker-end="url(#ah)" /><text x="562.5" y="480.0" text-anchor="middle" font-family="IBM Plex Mono, monospace" font-size="10" fill="#6E7795">transforme</text><line x1="360" y1="494" x2="628" y2="470" stroke="#8E8E91" stroke-width="1.4" marker-end="url(#ah)" /><text x="494.0" y="476.0" text-anchor="middle" font-family="IBM Plex Mono, monospace" font-size="10" fill="#6E7795">délivre</text><text x="40" y="546" font-family="IBM Plex Mono, monospace" font-size="10" letter-spacing="1.5" fill="#6E7795">ÉTATS</text><rect x="40" y="560" width="16" height="16" rx="3" fill="#F4F3F0" stroke="#1A2333" stroke-width="1.4"/><text x="62" y="572" font-family="Onest, -apple-system, sans-serif" font-size="11" fill="#3A4360">optimal</text><rect x="220" y="560" width="16" height="16" rx="3" fill="#EFEFEC" stroke="#8E8E91" stroke-width="1.4"/><text x="242" y="572" font-family="Onest, -apple-system, sans-serif" font-size="11" fill="#3A4360">fonct</text><rect x="400" y="560" width="16" height="16" rx="3" fill="#EAE8DE" stroke="#6B6630" stroke-width="1.4"/><text x="422" y="572" font-family="Onest, -apple-system, sans-serif" font-size="11" fill="#3A4360">vigilance</text><rect x="580" y="560" width="16" height="16" rx="3" fill="#E9E4DA" stroke="#7A6030" stroke-width="1.4"/><text x="602" y="572" font-family="Onest, -apple-system, sans-serif" font-size="11" fill="#3A4360">risque</text><rect x="760" y="560" width="16" height="16" rx="3" fill="#E9DED8" stroke="#7A3320" stroke-width="1.4"/><text x="782" y="572" font-family="Onest, -apple-system, sans-serif" font-size="11" fill="#3A4360">critique</text><rect x="940" y="560" width="16" height="16" rx="3" fill="#F3F3EF" stroke="#B5B5B8" stroke-width="1.4"/><text x="962" y="572" font-family="Onest, -apple-system, sans-serif" font-size="11" fill="#3A4360">nondoc</text></svg>