<svg viewBox="0 0 1060 360" xmlns="http://www.w3.org/2000/svg" font-family="Onest, -apple-system, sans-serif"><rect width="1060" height="360" fill="#1A2333"/><text x="40" y="46" font-family="IBM Plex Mono, monospace" font-size="12" letter-spacing="2" fill="#6E7A95">PARCOURS · CHAÎNE DE VALEUR</text><text x="40" y="78" font-family="Lora, Georgia, serif" font-size="24" fill="#F4EFE5">Charge administrative d'une consultation</text><line x1="40" y1="96" x2="1020" y2="96" stroke="rgba(244,239,229,0.12)" stroke-width="1"/><line x1="135" y1="196" x2="925" y2="196" stroke="#8E8E91" stroke-width="1.2"/><text x="135" y="162" text-anchor="middle" font-family="Lora, Georgia, serif" font-size="15" fill="#6E7A95" opacity="1">1</text><polygon points="118,185.5 144.4,185.5 152,196 144.4,206.5 118,206.5 124.8,196" fill="none" stroke="#C4A055" stroke-width="1.6" opacity="1" stroke-linejoin="round"/><circle cx="135" cy="226" r="3.2" fill="#C4A055" opacity="1"/><text x="135" y="246" text-anchor="middle" font-size="11" fill="#A8B2C8" opacity="1">Cotation de l'acte</text><text x="293" y="162" text-anchor="middle" font-family="Lora, Georgia, serif" font-size="15" fill="#6E7A95" opacity="1">2</text><polygon points="276,185.5 302.4,185.5 310,196 302.4,206.5 276,206.5 282.8,196" fill="none" stroke="rgba(244,239,229,0.42)" stroke-width="1.6" opacity="1" stroke-linejoin="round"/><circle cx="293" cy="226" r="3.2" fill="rgba(244,239,229,0.42)" opacity="1"/><text x="293" y="246" text-anchor="middle" font-size="11" fill="#A8B2C8" opacity="1">Mise à jour du</text><text x="293" y="259" text-anchor="middle" font-size="11" fill="#A8B2C8" opacity="1">dossier</text><text x="451" y="162" text-anchor="middle" font-family="Lora, Georgia, serif" font-size="15" fill="#6E7A95" opacity="1">3</text><polygon points="434,185.5 460.4,185.5 468,196 460.4,206.5 434,206.5 440.8,196" fill="none" stroke="#C9C9CC" stroke-width="1.6" opacity="1" stroke-linejoin="round"/><circle cx="451" cy="226" r="3.2" fill="#C9C9CC" opacity="1"/><text x="451" y="246" text-anchor="middle" font-size="11" fill="#A8B2C8" opacity="1">Télétransmission</text><text x="609" y="162" text-anchor="middle" font-family="Lora, Georgia, serif" font-size="15" fill="#6E7A95" opacity="1">4</text><polygon points="609,182.4 624.6,196 609,209.6 593.4,196" fill="none" stroke="#C4A055" stroke-width="1.6" opacity="1" stroke-linejoin="round"/><circle cx="609" cy="226" r="3.2" fill="#C4A055" opacity="1"/><text x="609" y="246" text-anchor="middle" font-size="11" fill="#A8B2C8" opacity="1">Retour payeur ?</text><text x="767" y="162" text-anchor="middle" font-family="Lora, Georgia, serif" font-size="15" fill="#6E7A95" opacity="1">5</text><polygon points="750,185.5 776.4,185.5 784,196 776.4,206.5 750,206.5 756.8,196" fill="none" stroke="#C4B870" stroke-width="1.6" opacity="1" stroke-linejoin="round"/><circle cx="767" cy="226" r="3.2" fill="#C4B870" opacity="1"/><text x="767" y="246" text-anchor="middle" font-size="11" fill="#A8B2C8" opacity="1">Reprise du rejet</text><text x="925" y="162" text-anchor="middle" font-family="Lora, Georgia, serif" font-size="15" fill="#6E7A95" opacity="1">6</text><polygon points="908,185.5 934.4,185.5 942,196 934.4,206.5 908,206.5 914.8,196" fill="none" stroke="#C9C9CC" stroke-width="1.6" opacity="1" stroke-linejoin="round"/><circle cx="925" cy="226" r="3.2" fill="#C9C9CC" opacity="1"/><text x="925" y="246" text-anchor="middle" font-size="11" fill="#A8B2C8" opacity="1">Encaissement</text><text x="40" y="318" font-family="IBM Plex Mono, monospace" font-size="9" letter-spacing="1.5" fill="#6E7A95">LA FORME DIT LE TYPE · LA COULEUR DIT L'ÉTAT · atténué = inféré</text><circle cx="44" cy="330" r="5" fill="none" stroke="#F4EFE5" stroke-width="1.6"/><text x="56" y="334" font-size="10.5" fill="#A8B2C8">optimal</text><circle cx="219" cy="330" r="5" fill="none" stroke="#C9C9CC" stroke-width="1.6"/><text x="231" y="334" font-size="10.5" fill="#A8B2C8">fonct</text><circle cx="394" cy="330" r="5" fill="none" stroke="#C4B870" stroke-width="1.6"/><text x="406" y="334" font-size="10.5" fill="#A8B2C8">vigilance</text><circle cx="569" cy="330" r="5" fill="none" stroke="#C4A055" stroke-width="1.6"/><text x="581" y="334" font-size="10.5" fill="#A8B2C8">risque</text><circle cx="744" cy="330" r="5" fill="none" stroke="#C46850" stroke-width="1.6"/><text x="756" y="334" font-size="10.5" fill="#A8B2C8">critique</text><circle cx="919" cy="330" r="5" fill="none" stroke="rgba(244,239,229,0.42)" stroke-width="1.6"/><text x="931" y="334" font-size="10.5" fill="#A8B2C8">nondoc</text></svg>