<svg viewBox="0 0 1100 660" xmlns="http://www.w3.org/2000/svg" font-family="Onest, -apple-system, sans-serif"><defs><marker id="ah" markerWidth="8" markerHeight="8" refX="6" refY="3" orient="auto"><path d="M0,0 L6,3 L0,6 Z" fill="#8E8E91"/></marker></defs><rect width="1100" height="660" fill="#1A2333"/><text x="40" y="46" font-family="IBM Plex Mono, monospace" font-size="12" letter-spacing="2" fill="#6E7A95">PARCOURS · CARTE DES OBJETS</text><text x="40" y="78" font-family="Lora, Georgia, serif" font-size="24" fill="#F4EFE5">Charge administrative d'une consultation</text><line x1="40" y1="96" x2="1060" y2="96" stroke="rgba(244,239,229,0.12)" stroke-width="1"/><line x1="674.5" y1="308" x2="292" y2="156" stroke="#8E8E91" stroke-width="1.2" marker-end="url(#ah)"/><text x="483.25" y="228" text-anchor="middle" font-family="IBM Plex Mono, monospace" font-size="8" fill="#6E7A95">interface</text><line x1="292" y1="156" x2="674.5" y2="368" stroke="#8E8E91" stroke-width="1.2" marker-end="url(#ah)"/><text x="483.25" y="258" text-anchor="middle" font-family="IBM Plex Mono, monospace" font-size="8" fill="#6E7A95">interface</text><rect x="40" y="116" width="504" height="76" fill="none" stroke="rgba(244,239,229,0.12)" stroke-width="1"/><text x="48" y="131" font-family="IBM Plex Mono, monospace" font-size="9" letter-spacing="1" fill="#6E7A95">ENVIRONNEMENT</text><circle cx="292" cy="156" r="12.8" fill="none" stroke="#C9C9CC" stroke-width="1.6" opacity="1" stroke-linejoin="round" stroke-dasharray="3 3"/><text x="292" y="180" text-anchor="middle" font-size="9.5" fill="#A8B2C8" opacity="1">Assurance</text><text x="292" y="191" text-anchor="middle" font-size="9.5" fill="#A8B2C8" opacity="1">maladie</text><rect x="556" y="116" width="504" height="76" fill="none" stroke="rgba(244,239,229,0.12)" stroke-width="1"/><text x="564" y="131" font-family="IBM Plex Mono, monospace" font-size="9" letter-spacing="1" fill="#6E7A95">STRATÉGIE</text><polygon points="799.8,146.7 816.3,146.7 821.5,165.3 794.5,165.3" fill="none" stroke="rgba(244,239,229,0.42)" stroke-width="1.6" opacity="1" stroke-linejoin="round"/><text x="808" y="180" text-anchor="middle" font-size="9.5" fill="#A8B2C8" opacity="1">Règles de</text><text x="808" y="191" text-anchor="middle" font-size="9.5" fill="#A8B2C8" opacity="1">cotation</text><rect x="40" y="208" width="249" height="356" fill="none" stroke="rgba(244,239,229,0.12)" stroke-width="1"/><text x="48" y="223" font-family="IBM Plex Mono, monospace" font-size="9" letter-spacing="1" fill="#6E7A95">PARTICIPANT</text><g fill="none" stroke="#C9C9CC" stroke-width="1.6" opacity="1" stroke-linejoin="round"><circle cx="164.5" cy="241.7" r="5.1"/><path d="M153.7,257 a10.8,9.3 0 0 1 21.6,0"/></g><text x="164.5" y="272" text-anchor="middle" font-size="9.5" fill="#A8B2C8" opacity="1">Médecin</text><g fill="none" stroke="rgba(244,239,229,0.42)" stroke-width="1.6" opacity="0.42" stroke-linejoin="round"><circle cx="164.5" cy="301.7" r="5.1"/><path d="M153.7,317 a10.8,9.3 0 0 1 21.6,0"/></g><text x="164.5" y="332" text-anchor="middle" font-size="9.5" fill="#A8B2C8" opacity="0.42">Secrétariat</text><rect x="295" y="208" width="249" height="174" fill="none" stroke="rgba(244,239,229,0.12)" stroke-width="1"/><text x="303" y="223" font-family="IBM Plex Mono, monospace" font-size="9" letter-spacing="1" fill="#6E7A95">TECHNOLOGIE</text><rect x="406.8" y="238.3" width="25.5" height="19.5" rx="3" fill="none" stroke="#C9C9CC" stroke-width="1.6" opacity="1" stroke-linejoin="round"/><text x="419.5" y="272" text-anchor="middle" font-size="9.5" fill="#A8B2C8" opacity="1">Logiciel métier</text><rect x="406.8" y="298.3" width="25.5" height="19.5" rx="3" fill="none" stroke="#C9C9CC" stroke-width="1.6" opacity="1" stroke-linejoin="round"/><text x="419.5" y="332" text-anchor="middle" font-size="9.5" fill="#A8B2C8" opacity="1">Lecteur Vitale</text><rect x="295" y="390" width="249" height="174" fill="none" stroke="rgba(244,239,229,0.12)" stroke-width="1"/><text x="303" y="405" font-family="IBM Plex Mono, monospace" font-size="9" letter-spacing="1" fill="#6E7A95">INFORMATION</text><rect x="406.8" y="420.3" width="25.5" height="19.5" rx="3" fill="none" stroke="#C9C9CC" stroke-width="1.6" opacity="1" stroke-linejoin="round"/><text x="419.5" y="454" text-anchor="middle" font-size="9.5" fill="#A8B2C8" opacity="1">Feuille de</text><text x="419.5" y="465" text-anchor="middle" font-size="9.5" fill="#A8B2C8" opacity="1">soins</text><g fill="none" stroke="#C9C9CC" stroke-width="1.6" opacity="1" stroke-linejoin="round"><ellipse cx="419.5" cy="482.5" rx="12" ry="4.2"/><path d="M407.5,482.5 v15 a12,4.2 0 0 0 24,0 v-15"/></g><text x="419.5" y="514" text-anchor="middle" font-size="9.5" fill="#A8B2C8" opacity="1">Dossier patient</text><rect x="550" y="208" width="249" height="356" fill="none" stroke="rgba(244,239,229,0.12)" stroke-width="1"/><text x="558" y="223" font-family="IBM Plex Mono, monospace" font-size="9" letter-spacing="1" fill="#6E7A95">PROCESSUS</text><polygon points="659.5,238.7 682.8,238.7 689.5,248 682.8,257.3 659.5,257.3 665.5,248" fill="none" stroke="#C4A055" stroke-width="1.6" opacity="1" stroke-linejoin="round"/><text x="674.5" y="272" text-anchor="middle" font-size="9.5" fill="#A8B2C8" opacity="1">Cotation de</text><text x="674.5" y="283" text-anchor="middle" font-size="9.5" fill="#A8B2C8" opacity="1">l'acte</text><polygon points="659.5,298.7 682.8,298.7 689.5,308 682.8,317.3 659.5,317.3 665.5,308" fill="none" stroke="#C9C9CC" stroke-width="1.6" opacity="1" stroke-linejoin="round"/><text x="674.5" y="332" text-anchor="middle" font-size="9.5" fill="#A8B2C8" opacity="1">Télétransmission</text><polygon points="674.5,356 688.3,368 674.5,380 660.7,368" fill="none" stroke="#C4A055" stroke-width="1.6" opacity="1" stroke-linejoin="round"/><text x="674.5" y="392" text-anchor="middle" font-size="9.5" fill="#A8B2C8" opacity="1">Retour payeur ?</text><polygon points="659.5,418.7 682.8,418.7 689.5,428 682.8,437.3 659.5,437.3 665.5,428" fill="none" stroke="#C4B870" stroke-width="1.6" opacity="1" stroke-linejoin="round"/><text x="674.5" y="452" text-anchor="middle" font-size="9.5" fill="#A8B2C8" opacity="1">Reprise du</text><text x="674.5" y="463" text-anchor="middle" font-size="9.5" fill="#A8B2C8" opacity="1">rejet</text><polygon points="659.5,478.7 682.8,478.7 689.5,488 682.8,497.3 659.5,497.3 665.5,488" fill="none" stroke="#C9C9CC" stroke-width="1.6" opacity="1" stroke-linejoin="round"/><text x="674.5" y="512" text-anchor="middle" font-size="9.5" fill="#A8B2C8" opacity="1">Encaissement</text><polygon points="659.5,538.7 682.8,538.7 689.5,548 682.8,557.3 659.5,557.3 665.5,548" fill="none" stroke="rgba(244,239,229,0.42)" stroke-width="1.6" opacity="1" stroke-linejoin="round"/><text x="674.5" y="572" text-anchor="middle" font-size="9.5" fill="#A8B2C8" opacity="1">Mise à jour du</text><text x="674.5" y="583" text-anchor="middle" font-size="9.5" fill="#A8B2C8" opacity="1">dossier</text><rect x="805" y="208" width="255" height="174" fill="none" stroke="rgba(244,239,229,0.12)" stroke-width="1"/><text x="813" y="223" font-family="IBM Plex Mono, monospace" font-size="9" letter-spacing="1" fill="#6E7A95">PRODUIT</text><polygon points="923.5,238.7 947.5,238.7 941.5,257.3 917.5,257.3" fill="none" stroke="#C4B870" stroke-width="1.6" opacity="1" stroke-linejoin="round"/><text x="932.5" y="272" text-anchor="middle" font-size="9.5" fill="#A8B2C8" opacity="1">Documents</text><text x="932.5" y="283" text-anchor="middle" font-size="9.5" fill="#A8B2C8" opacity="1">associés</text><rect x="805" y="390" width="255" height="174" fill="none" stroke="rgba(244,239,229,0.12)" stroke-width="1"/><text x="813" y="405" font-family="IBM Plex Mono, monospace" font-size="9" letter-spacing="1" fill="#6E7A95">CLIENT</text><rect x="40" y="572" width="1020" height="56" fill="none" stroke="rgba(244,239,229,0.12)" stroke-width="1"/><text x="48" y="587" font-family="IBM Plex Mono, monospace" font-size="9" letter-spacing="1" fill="#6E7A95">INFRASTRUCTURE</text><circle cx="674.5" cy="248" r="26" fill="none" stroke="#C46850" stroke-width="1.4" stroke-dasharray="4 3"/><text x="674.5" y="218" text-anchor="middle" font-family="IBM Plex Mono, monospace" font-size="8.5" fill="#C46850">désalignement</text><circle cx="44" cy="646" r="5" fill="none" stroke="#F4EFE5" stroke-width="1.6"/><text x="56" y="650" font-size="10" fill="#A8B2C8">optimal</text><circle cx="214" cy="646" r="5" fill="none" stroke="#C9C9CC" stroke-width="1.6"/><text x="226" y="650" font-size="10" fill="#A8B2C8">fonct</text><circle cx="384" cy="646" r="5" fill="none" stroke="#C4B870" stroke-width="1.6"/><text x="396" y="650" font-size="10" fill="#A8B2C8">vigilance</text><circle cx="554" cy="646" r="5" fill="none" stroke="#C4A055" stroke-width="1.6"/><text x="566" y="650" font-size="10" fill="#A8B2C8">risque</text><circle cx="724" cy="646" r="5" fill="none" stroke="#C46850" stroke-width="1.6"/><text x="736" y="650" font-size="10" fill="#A8B2C8">critique</text><circle cx="894" cy="646" r="5" fill="none" stroke="rgba(244,239,229,0.42)" stroke-width="1.6"/><text x="906" y="650" font-size="10" fill="#A8B2C8">nondoc</text></svg>