<svg viewBox="0 0 1512 676" xmlns="http://www.w3.org/2000/svg" font-family="Onest, -apple-system, sans-serif"><defs><marker id="lah" markerWidth="9" markerHeight="9" refX="7" refY="3" orient="auto"><path d="M0,0 L7,3 L0,6 Z" fill="#8E8E91"/></marker></defs><rect width="1512" height="676" fill="#1A2333"/><text x="40" y="46" font-family="IBM Plex Mono, monospace" font-size="12" letter-spacing="2" fill="#6E7A95">PARCOURS · LOGIGRAMME DE PROCESS</text><text x="40" y="78" font-family="Lora, Georgia, serif" font-size="24" fill="#F4EFE5">Charge administrative d'une consultation</text><line x1="40" y1="96" x2="1472" y2="96" stroke="rgba(244,239,229,0.12)" stroke-width="1"/><path d="M160,272 C235,272 235,168 310,168" fill="none" stroke="#8E8E91" stroke-width="1.2" marker-end="url(#lah)"/><rect x="215.9" y="208" width="38.199999999999996" height="11" fill="#1A2333"/><text x="235" y="216" text-anchor="middle" font-family="IBM Plex Mono, monospace" font-size="8" fill="#6E7A95">utilise</text><path d="M160,272 C235,272 235,272 310,272" fill="none" stroke="#8E8E91" stroke-width="1.2" marker-end="url(#lah)"/><rect x="215.9" y="260" width="38.199999999999996" height="11" fill="#1A2333"/><text x="235" y="268" text-anchor="middle" font-family="IBM Plex Mono, monospace" font-size="8" fill="#6E7A95">utilise</text><path d="M160,480 C235,480 235,376 310,376" fill="none" stroke="#8E8E91" stroke-width="1.2" marker-end="url(#lah)"/><rect x="211.3" y="416" width="47.4" height="11" fill="#1A2333"/><text x="235" y="424" text-anchor="middle" font-family="IBM Plex Mono, monospace" font-size="8" fill="#6E7A95">contraint</text><path d="M356,376 C431,376 431,324 506,324" fill="none" stroke="#8E8E91" stroke-width="1.2" marker-end="url(#lah)"/><rect x="411.9" y="338" width="38.199999999999996" height="11" fill="#1A2333"/><text x="431" y="346" text-anchor="middle" font-family="IBM Plex Mono, monospace" font-size="8" fill="#6E7A95">produit</text><path d="M552,324 C627,324 627,376 702,376" fill="none" stroke="#8E8E91" stroke-width="1.2" marker-end="url(#lah)"/><rect x="605.6" y="338" width="42.8" height="11" fill="#1A2333"/><text x="627" y="346" text-anchor="middle" font-family="IBM Plex Mono, monospace" font-size="8" fill="#6E7A95">alimente</text><path d="M356,272 C529,272 529,376 702,376" fill="none" stroke="#8E8E91" stroke-width="1.2" marker-end="url(#lah)"/><rect x="507.6" y="312" width="42.8" height="11" fill="#1A2333"/><text x="529" y="320" text-anchor="middle" font-family="IBM Plex Mono, monospace" font-size="8" fill="#6E7A95">supporte</text><path d="M748,376 C823,376 823,376 898,376" fill="none" stroke="#8E8E91" stroke-width="1.2" marker-end="url(#lah)"/><rect x="799.3" y="364" width="47.4" height="11" fill="#1A2333"/><text x="823" y="372" text-anchor="middle" font-family="IBM Plex Mono, monospace" font-size="8" fill="#6E7A95">interface</text><path d="M944,376 C1019,376 1019,376 1094,376" fill="none" stroke="#8E8E91" stroke-width="1.2" marker-end="url(#lah)"/><rect x="995.3" y="364" width="47.4" height="11" fill="#1A2333"/><text x="1019" y="372" text-anchor="middle" font-family="IBM Plex Mono, monospace" font-size="8" fill="#6E7A95">interface</text><path d="M1140,376 C1215,376 1215,324 1290,324" fill="none" stroke="#8E8E91" stroke-width="1.2" marker-end="url(#lah)"/><rect x="1198.2" y="338" width="33.599999999999994" height="11" fill="#1A2333"/><text x="1215" y="346" text-anchor="middle" font-family="IBM Plex Mono, monospace" font-size="8" fill="#6E7A95">rejeté</text><path d="M1140,376 C1215,376 1215,428 1290,428" fill="none" stroke="#8E8E91" stroke-width="1.2" marker-end="url(#lah)"/><rect x="1195.9" y="390" width="38.199999999999996" height="11" fill="#1A2333"/><text x="1215" y="398" text-anchor="middle" font-family="IBM Plex Mono, monospace" font-size="8" fill="#6E7A95">accepté</text><path d="M1292,324 C1021,324 1021,376 750,376" fill="none" stroke="#8E8E91" stroke-width="1.2" marker-end="url(#lah)"/><rect x="999.6" y="338" width="42.8" height="11" fill="#1A2333"/><text x="1021" y="346" text-anchor="middle" font-family="IBM Plex Mono, monospace" font-size="8" fill="#6E7A95">alimente</text><path d="M160,272 C235,272 235,480 310,480" fill="none" stroke="#8E8E91" stroke-width="1.2" marker-end="url(#lah)"/><rect x="215.9" y="364" width="38.199999999999996" height="11" fill="#1A2333"/><text x="235" y="372" text-anchor="middle" font-family="IBM Plex Mono, monospace" font-size="8" fill="#6E7A95">produit</text><path d="M160,272 C235,272 235,584 310,584" fill="none" stroke="#8E8E91" stroke-width="1.2" marker-end="url(#lah)"/><rect x="215.9" y="416" width="38.199999999999996" height="11" fill="#1A2333"/><text x="235" y="424" text-anchor="middle" font-family="IBM Plex Mono, monospace" font-size="8" fill="#6E7A95">produit</text><path d="M356,584 C431,584 431,428 506,428" fill="none" stroke="#8E8E91" stroke-width="1.2" marker-end="url(#lah)"/><rect x="405" y="494" width="52" height="11" fill="#1A2333"/><text x="431" y="502" text-anchor="middle" font-family="IBM Plex Mono, monospace" font-size="8" fill="#6E7A95">transforme</text><path d="M356,480 C431,480 431,428 506,428" fill="none" stroke="#8E8E91" stroke-width="1.2" marker-end="url(#lah)"/><rect x="411.9" y="442" width="38.199999999999996" height="11" fill="#1A2333"/><text x="431" y="450" text-anchor="middle" font-family="IBM Plex Mono, monospace" font-size="8" fill="#6E7A95">delivre</text><g fill="none" stroke="#C9C9CC" stroke-width="1.6" opacity="1" stroke-linejoin="round"><circle cx="138" cy="264.4" r="6.1"/><path d="M125,282.8 a13,11.2 0 0 1 25.9,0"/></g><text x="138" y="302" text-anchor="middle" font-size="10" fill="#A8B2C8" opacity="1">Médecin</text><g fill="none" stroke="rgba(244,239,229,0.42)" stroke-width="1.6" opacity="0.42" stroke-linejoin="round"><circle cx="138" cy="368.4" r="6.1"/><path d="M125,386.8 a13,11.2 0 0 1 25.9,0"/></g><text x="138" y="406" text-anchor="middle" font-size="10" fill="#A8B2C8" opacity="0.42">Secrétariat</text><rect x="318.7" y="156.3" width="30.6" height="23.4" rx="3" fill="none" stroke="#C9C9CC" stroke-width="1.6" opacity="1" stroke-linejoin="round"/><text x="334" y="198" text-anchor="middle" font-size="10" fill="#A8B2C8" opacity="1">Logiciel métier</text><rect x="318.7" y="260.3" width="30.6" height="23.4" rx="3" fill="none" stroke="#C9C9CC" stroke-width="1.6" opacity="1" stroke-linejoin="round"/><text x="334" y="302" text-anchor="middle" font-size="10" fill="#A8B2C8" opacity="1">Lecteur Vitale</text><polygon points="128.1,468.8 147.9,468.8 154.2,491.2 121.8,491.2" fill="none" stroke="rgba(244,239,229,0.42)" stroke-width="1.6" opacity="1" stroke-linejoin="round"/><text x="138" y="510" text-anchor="middle" font-size="10" fill="#A8B2C8" opacity="1">Règles de</text><text x="138" y="522" text-anchor="middle" font-size="10" fill="#A8B2C8" opacity="1">cotation</text><polygon points="316,364.8 343.9,364.8 352,376 343.9,387.2 316,387.2 323.2,376" fill="none" stroke="#C4A055" stroke-width="1.6" opacity="1" stroke-linejoin="round"/><text x="334" y="406" text-anchor="middle" font-size="10" fill="#A8B2C8" opacity="1">Cotation de</text><text x="334" y="418" text-anchor="middle" font-size="10" fill="#A8B2C8" opacity="1">l'acte</text><rect x="514.7" y="312.3" width="30.6" height="23.4" rx="3" fill="none" stroke="#C9C9CC" stroke-width="1.6" opacity="1" stroke-linejoin="round"/><text x="530" y="354" text-anchor="middle" font-size="10" fill="#A8B2C8" opacity="1">Feuille de soins</text><polygon points="708,364.8 735.9,364.8 744,376 735.9,387.2 708,387.2 715.2,376" fill="none" stroke="#C9C9CC" stroke-width="1.6" opacity="1" stroke-linejoin="round"/><text x="726" y="406" text-anchor="middle" font-size="10" fill="#A8B2C8" opacity="1">Télétransmission</text><circle cx="922" cy="376" r="15.3" fill="none" stroke="#C9C9CC" stroke-width="1.6" opacity="1" stroke-linejoin="round" stroke-dasharray="3 3"/><text x="922" y="406" text-anchor="middle" font-size="10" fill="#A8B2C8" opacity="1">Assurance maladie</text><polygon points="1118,361.6 1134.6,376 1118,390.4 1101.4,376" fill="none" stroke="#C4A055" stroke-width="1.6" opacity="1" stroke-linejoin="round"/><text x="1118" y="406" text-anchor="middle" font-size="10" fill="#A8B2C8" opacity="1">Retour payeur ?</text><polygon points="1296,312.8 1323.9,312.8 1332,324 1323.9,335.2 1296,335.2 1303.2,324" fill="none" stroke="#C4B870" stroke-width="1.6" opacity="1" stroke-linejoin="round"/><text x="1314" y="354" text-anchor="middle" font-size="10" fill="#A8B2C8" opacity="1">Reprise du rejet</text><polygon points="1296,416.8 1323.9,416.8 1332,428 1323.9,439.2 1296,439.2 1303.2,428" fill="none" stroke="#C9C9CC" stroke-width="1.6" opacity="1" stroke-linejoin="round"/><text x="1314" y="458" text-anchor="middle" font-size="10" fill="#A8B2C8" opacity="1">Encaissement</text><polygon points="323.2,468.8 352,468.8 344.8,491.2 316,491.2" fill="none" stroke="#C4B870" stroke-width="1.6" opacity="1" stroke-linejoin="round"/><text x="334" y="510" text-anchor="middle" font-size="10" fill="#A8B2C8" opacity="1">Documents</text><text x="334" y="522" text-anchor="middle" font-size="10" fill="#A8B2C8" opacity="1">associés</text><polygon points="316,572.8 343.9,572.8 352,584 343.9,595.2 316,595.2 323.2,584" fill="none" stroke="rgba(244,239,229,0.42)" stroke-width="1.6" opacity="1" stroke-linejoin="round"/><text x="334" y="614" text-anchor="middle" font-size="10" fill="#A8B2C8" opacity="1">Mise à jour du</text><text x="334" y="626" text-anchor="middle" font-size="10" fill="#A8B2C8" opacity="1">dossier</text><g fill="none" stroke="#C9C9CC" stroke-width="1.6" opacity="1" stroke-linejoin="round"><ellipse cx="530" cy="419" rx="14.4" ry="5"/><path d="M515.6,419 v18 a14.4,5 0 0 0 28.8,0 v-18"/></g><text x="530" y="458" text-anchor="middle" font-size="10" fill="#A8B2C8" opacity="1">Dossier patient</text></svg>