<svg viewBox="0 0 1180 620" xmlns="http://www.w3.org/2000/svg" font-family="Onest, -apple-system, sans-serif"><rect width="1180" height="620" fill="#F4EFE5"/><text x="40" y="46" font-family="IBM Plex Mono, monospace" font-size="12" letter-spacing="2" fill="#6E7795">PARCOURS · MINI-CARTO DES OBJETS</text><text x="40" y="78" font-family="Lora, Georgia, serif" font-size="24" fill="#1A2333">Charge administrative d'une consultation</text><line x1="40" y1="96" x2="1140" y2="96" stroke="rgba(26,35,51,0.12)" stroke-width="1"/><line x1="250.0" y1="127.0" x2="520.0" y2="102.0" stroke="#B5B5B8" stroke-width="2.08" opacity="0.55"/><line x1="250.0" y1="127.0" x2="520.0" y2="198.0" stroke="#B5B5B8" stroke-width="1.76" opacity="0.55"/><line x1="235.0" y1="380.0" x2="560.0" y2="299.0" stroke="#B5B5B8" stroke-width="1.92" opacity="0.55"/><line x1="560.0" y1="299.0" x2="830.0" y2="152.0" stroke="#B5B5B8" stroke-width="2.08" opacity="0.55"/><line x1="830.0" y1="152.0" x2="625.8" y2="337.0" stroke="#B5B5B8" stroke-width="2.24" opacity="0.55"/><line x1="520.0" y1="198.0" x2="625.8" y2="337.0" stroke="#B5B5B8" stroke-width="1.76" opacity="0.55"/><line x1="625.8" y1="337.0" x2="1015.0" y2="300.0" stroke="#B5B5B8" stroke-width="2.08" opacity="0.55"/><line x1="1015.0" y1="300.0" x2="625.8" y2="413.0" stroke="#B5B5B8" stroke-width="1.76" opacity="0.55"/><line x1="625.8" y1="413.0" x2="560.0" y2="451.0" stroke="#B5B5B8" stroke-width="1.60" opacity="0.55"/><line x1="625.8" y1="413.0" x2="494.2" y2="413.0" stroke="#B5B5B8" stroke-width="1.92" opacity="0.55"/><line x1="560.0" y1="451.0" x2="625.8" y2="337.0" stroke="#B5B5B8" stroke-width="1.28" opacity="0.55"/><line x1="250.0" y1="127.0" x2="820.0" y2="480.0" stroke="#B5B5B8" stroke-width="1.92" opacity="0.55"/><line x1="250.0" y1="127.0" x2="494.2" y2="337.0" stroke="#B5B5B8" stroke-width="1.76" opacity="0.55"/><line x1="494.2" y1="337.0" x2="830.0" y2="248.0" stroke="#B5B5B8" stroke-width="1.92" opacity="0.55"/><line x1="820.0" y1="480.0" x2="830.0" y2="248.0" stroke="#B5B5B8" stroke-width="1.60" opacity="0.55"/><circle cx="250.0" cy="127.0" r="10" fill="#8E8E91" stroke="#F4EFE5" stroke-width="2" opacity="1"/><text x="265.0" y="131.0" font-size="11.5" fill="#3A4360" opacity="1">Médecin</text><circle cx="250.0" cy="223.0" r="10" fill="#B5B5B8" stroke="#F4EFE5" stroke-width="2" opacity="0.42"/><text x="265.0" y="227.0" font-size="11.5" fill="#3A4360" opacity="0.42">Secrétariat</text><circle cx="520.0" cy="102.0" r="10" fill="#8E8E91" stroke="#F4EFE5" stroke-width="2" opacity="1"/><text x="535.0" y="106.0" font-size="11.5" fill="#3A4360" opacity="1">Logiciel métier</text><circle cx="520.0" cy="198.0" r="10" fill="#8E8E91" stroke="#F4EFE5" stroke-width="2" opacity="1"/><text x="535.0" y="202.0" font-size="11.5" fill="#3A4360" opacity="1">Lecteur Vitale</text><circle cx="235.0" cy="380.0" r="10" fill="#B5B5B8" stroke="#F4EFE5" stroke-width="2" opacity="1"/><text x="250.0" y="384.0" font-size="11.5" fill="#3A4360" opacity="1">Règles de cotation</text><circle cx="560.0" cy="299.0" r="10" fill="#7A6030" stroke="#F4EFE5" stroke-width="2" opacity="1"/><text x="575.0" y="303.0" font-size="11.5" fill="#3A4360" opacity="1">Cotation de l'acte</text><circle cx="830.0" cy="152.0" r="10" fill="#8E8E91" stroke="#F4EFE5" stroke-width="2" opacity="1"/><text x="845.0" y="156.0" font-size="11.5" fill="#3A4360" opacity="1">Feuille de soins</text><circle cx="625.8" cy="337.0" r="10" fill="#8E8E91" stroke="#F4EFE5" stroke-width="2" opacity="1"/><text x="640.8" y="341.0" font-size="11.5" fill="#3A4360" opacity="1">Télétransmission</text><circle cx="1015.0" cy="300.0" r="10" fill="#8E8E91" stroke="#F4EFE5" stroke-width="2" opacity="1"/><text x="1030.0" y="304.0" font-size="11.5" fill="#3A4360" opacity="1">Assurance maladie</text><circle cx="625.8" cy="413.0" r="10" fill="#7A6030" stroke="#F4EFE5" stroke-width="2" opacity="1"/><text x="640.8" y="417.0" font-size="11.5" fill="#3A4360" opacity="1">Retour payeur ?</text><circle cx="560.0" cy="451.0" r="10" fill="#6B6630" stroke="#F4EFE5" stroke-width="2" opacity="1"/><text x="575.0" y="455.0" font-size="11.5" fill="#3A4360" opacity="1">Reprise du rejet</text><circle cx="494.2" cy="413.0" r="10" fill="#8E8E91" stroke="#F4EFE5" stroke-width="2" opacity="1"/><text x="509.2" y="417.0" font-size="11.5" fill="#3A4360" opacity="1">Encaissement</text><circle cx="820.0" cy="480.0" r="10" fill="#6B6630" stroke="#F4EFE5" stroke-width="2" opacity="1"/><text x="835.0" y="484.0" font-size="11.5" fill="#3A4360" opacity="1">Documents associés</text><circle cx="494.2" cy="337.0" r="10" fill="#B5B5B8" stroke="#F4EFE5" stroke-width="2" opacity="1"/><text x="509.2" y="341.0" font-size="11.5" fill="#3A4360" opacity="1">Mise à jour du dossier</text><circle cx="830.0" cy="248.0" r="10" fill="#8E8E91" stroke="#F4EFE5" stroke-width="2" opacity="1"/><text x="845.0" y="252.0" font-size="11.5" fill="#3A4360" opacity="1">Dossier patient</text><text x="40" y="564" font-family="IBM Plex Mono, monospace" font-size="10" letter-spacing="1.5" fill="#6E7795">ÉTAT DE SANTÉ DES OBJETS · point atténué = inféré</text><circle cx="70" cy="586" r="8" fill="#1A2333"/><text x="86" y="590" font-size="11" fill="#3A4360">optimal</text><circle cx="250" cy="586" r="8" fill="#8E8E91"/><text x="266" y="590" font-size="11" fill="#3A4360">fonct</text><circle cx="430" cy="586" r="8" fill="#6B6630"/><text x="446" y="590" font-size="11" fill="#3A4360">vigilance</text><circle cx="610" cy="586" r="8" fill="#7A6030"/><text x="626" y="590" font-size="11" fill="#3A4360">risque</text><circle cx="790" cy="586" r="8" fill="#7A3320"/><text x="806" y="590" font-size="11" fill="#3A4360">critique</text><circle cx="970" cy="586" r="8" fill="#B5B5B8"/><text x="986" y="590" font-size="11" fill="#3A4360">nondoc</text></svg>